<svg width="146" height="30" viewBox="0 0 146 30" fill="none" xmlns="http://www.w3.org/2000/svg">
<path d="M30.5915 24.2C29.1582 24.2 27.8665 23.9083 26.7165 23.325C25.5832 22.725 24.6915 21.9 24.0415 20.85C23.4082 19.8 23.0915 18.6083 23.0915 17.275C23.0915 15.9417 23.4082 14.75 24.0415 13.7C24.6915 12.65 25.5832 11.8333 26.7165 11.25C27.8665 10.65 29.1582 10.35 30.5915 10.35C32.0082 10.35 33.2415 10.65 34.2915 11.25C35.3582 11.8333 36.1332 12.675 36.6165 13.775L33.5915 15.4C32.8915 14.1667 31.8832 13.55 30.5665 13.55C29.5498 13.55 28.7082 13.8833 28.0415 14.55C27.3748 15.2167 27.0415 16.125 27.0415 17.275C27.0415 18.425 27.3748 19.3333 28.0415 20C28.7082 20.6667 29.5498 21 30.5665 21C31.8998 21 32.9082 20.3833 33.5915 19.15L36.6165 20.8C36.1332 21.8667 35.3582 22.7 34.2915 23.3C33.2415 23.9 32.0082 24.2 30.5915 24.2ZM44.287 10.35C46.3703 10.35 47.9703 10.85 49.087 11.85C50.2037 12.8333 50.762 14.325 50.762 16.325V24H47.112V22.325C46.3787 23.575 45.012 24.2 43.012 24.2C41.9787 24.2 41.0787 24.025 40.312 23.675C39.562 23.325 38.987 22.8417 38.587 22.225C38.187 21.6083 37.987 20.9083 37.987 20.125C37.987 18.875 38.4537 17.8917 39.387 17.175C40.337 16.4583 41.7953 16.1 43.762 16.1H46.862C46.862 15.25 46.6037 14.6 46.087 14.15C45.5703 13.6833 44.7953 13.45 43.762 13.45C43.0453 13.45 42.337 13.5667 41.637 13.8C40.9537 14.0167 40.3703 14.3167 39.887 14.7L38.487 11.975C39.2203 11.4583 40.0953 11.0583 41.112 10.775C42.1453 10.4917 43.2037 10.35 44.287 10.35ZM43.987 21.575C44.6537 21.575 45.2453 21.425 45.762 21.125C46.2787 20.8083 46.6453 20.35 46.862 19.75V18.375H44.187C42.587 18.375 41.787 18.9 41.787 19.95C41.787 20.45 41.9787 20.85 42.362 21.15C42.762 21.4333 43.3037 21.575 43.987 21.575ZM58.8167 24.2C57.7 24.2 56.6084 24.0667 55.5417 23.8C54.475 23.5167 53.625 23.1667 52.9917 22.75L54.2917 19.95C54.8917 20.3333 55.6167 20.65 56.4667 20.9C57.3167 21.1333 58.15 21.25 58.9667 21.25C60.6167 21.25 61.4417 20.8417 61.4417 20.025C61.4417 19.6417 61.2167 19.3667 60.7667 19.2C60.3167 19.0333 59.625 18.8917 58.6917 18.775C57.5917 18.6083 56.6834 18.4167 55.9667 18.2C55.25 17.9833 54.625 17.6 54.0917 17.05C53.575 16.5 53.3167 15.7167 53.3167 14.7C53.3167 13.85 53.5584 13.1 54.0417 12.45C54.5417 11.7833 55.2584 11.2667 56.1917 10.9C57.1417 10.5333 58.2584 10.35 59.5417 10.35C60.4917 10.35 61.4334 10.4583 62.3667 10.675C63.3167 10.875 64.1 11.1583 64.7167 11.525L63.4167 14.3C62.2334 13.6333 60.9417 13.3 59.5417 13.3C58.7084 13.3 58.0834 13.4167 57.6667 13.65C57.25 13.8833 57.0417 14.1833 57.0417 14.55C57.0417 14.9667 57.2667 15.2583 57.7167 15.425C58.1667 15.5917 58.8834 15.75 59.8667 15.9C60.9667 16.0833 61.8667 16.2833 62.5667 16.5C63.2667 16.7 63.875 17.075 64.3917 17.625C64.9084 18.175 65.1667 18.9417 65.1667 19.925C65.1667 20.7583 64.9167 21.5 64.4167 22.15C63.9167 22.8 63.1834 23.3083 62.2167 23.675C61.2667 24.025 60.1334 24.2 58.8167 24.2ZM75.7479 10.35C77.4146 10.35 78.7563 10.85 79.7729 11.85C80.8063 12.85 81.323 14.3333 81.323 16.3V24H77.4229V16.9C77.4229 15.8333 77.1896 15.0417 76.7229 14.525C76.2563 13.9917 75.5813 13.725 74.6979 13.725C73.7146 13.725 72.9313 14.0333 72.3479 14.65C71.7646 15.25 71.4729 16.15 71.4729 17.35V24H67.5729V5.45H71.4729V11.95C71.9896 11.4333 72.6146 11.0417 73.3479 10.775C74.0813 10.4917 74.8813 10.35 75.7479 10.35ZM90.2831 10.35C92.3664 10.35 93.9664 10.85 95.0831 11.85C96.1998 12.8333 96.7581 14.325 96.7581 16.325V24H93.1081V22.325C92.3748 23.575 91.0081 24.2 89.0081 24.2C87.9748 24.2 87.0748 24.025 86.3081 23.675C85.5581 23.325 84.9831 22.8417 84.5831 22.225C84.1831 21.6083 83.9831 20.9083 83.9831 20.125C83.9831 18.875 84.4498 17.8917 85.3831 17.175C86.3331 16.4583 87.7914 16.1 89.7581 16.1H92.8581C92.8581 15.25 92.5998 14.6 92.0831 14.15C91.5664 13.6833 90.7914 13.45 89.7581 13.45C89.0414 13.45 88.3331 13.5667 87.6331 13.8C86.9498 14.0167 86.3664 14.3167 85.8831 14.7L84.4831 11.975C85.2164 11.4583 86.0914 11.0583 87.1081 10.775C88.1414 10.4917 89.1998 10.35 90.2831 10.35ZM89.9831 21.575C90.6498 21.575 91.2414 21.425 91.7581 21.125C92.2748 20.8083 92.6414 20.35 92.8581 19.75V18.375H90.1831C88.5831 18.375 87.7831 18.9 87.7831 19.95C87.7831 20.45 87.9748 20.85 88.3581 21.15C88.7581 21.4333 89.2998 21.575 89.9831 21.575ZM117.513 10.35C119.196 10.35 120.529 10.85 121.513 11.85C122.513 12.8333 123.013 14.3167 123.013 16.3V24H119.113V16.9C119.113 15.8333 118.888 15.0417 118.438 14.525C118.004 13.9917 117.379 13.725 116.563 13.725C115.646 13.725 114.921 14.025 114.388 14.625C113.854 15.2083 113.588 16.0833 113.588 17.25V24H109.688V16.9C109.688 14.7833 108.838 13.725 107.138 13.725C106.238 13.725 105.521 14.025 104.988 14.625C104.454 15.2083 104.188 16.0833 104.188 17.25V24H100.288V10.55H104.013V12.1C104.513 11.5333 105.121 11.1 105.838 10.8C106.571 10.5 107.371 10.35 108.238 10.35C109.188 10.35 110.046 10.5417 110.813 10.925C111.579 11.2917 112.196 11.8333 112.663 12.55C113.213 11.85 113.904 11.3083 114.738 10.925C115.588 10.5417 116.513 10.35 117.513 10.35Z" fill="#61D25F"/>
</svg>
